<svg version="1.1" id="Layer_1" xmlns="http://www.w3.org/2000/svg" xmlns:xlink="http://www.w3.org/1999/xlink" x="0px" y="0px"
	 width="100%" viewBox="0 0 512 512" enable-background="new 0 0 512 512" xml:space="preserve">
<path fill="#000000" opacity="1.000000" stroke="none" 
	d="
M106.999954,266.836609 
	C112.166397,266.861816 116.833138,266.930389 121.499283,266.901672 
	C128.086731,266.861145 128.431595,266.363770 127.100868,260.018677 
	C125.117867,250.563339 123.611176,241.026215 123.764999,231.341614 
	C124.071182,212.064819 128.683334,193.827087 137.478683,176.658859 
	C137.934464,175.769211 138.412109,174.890167 138.845444,173.989746 
	C139.425674,172.784103 140.162842,171.488129 139.099747,170.267410 
	C138.105362,169.125626 136.676361,169.326355 135.356247,169.628937 
	C130.815536,170.669708 126.276039,171.717590 121.750092,172.820267 
	C119.278114,173.422546 116.768219,173.505966 114.299934,173.156464 
	C107.605667,172.208572 104.378761,166.591049 106.833504,160.332733 
	C108.662048,155.670914 112.122620,152.277725 115.862373,149.186829 
	C126.004036,140.804794 137.491043,134.788300 149.950211,130.745438 
	C154.026962,129.422577 156.106216,127.077873 157.634552,123.198891 
	C172.786072,84.743652 201.330093,63.091320 241.830597,56.678066 
	C250.396240,55.321701 259.034576,55.017464 267.690674,55.589428 
	C270.197571,55.755070 271.875275,55.252728 273.325226,52.710964 
	C276.463409,47.209675 282.037476,46.194866 287.707642,46.932545 
	C293.703705,47.712612 299.949249,49.106133 302.195923,55.776466 
	C303.386505,59.311413 305.470245,60.617008 308.685883,61.647465 
	C337.248596,70.800407 359.412415,87.682724 372.813110,115.086678 
	C379.112976,127.969612 380.412537,141.867004 381.197968,155.851501 
	C381.505920,161.335205 381.214630,166.850113 381.334900,172.347778 
	C381.399323,175.295975 380.958191,178.049072 378.908386,180.245224 
	C377.206146,182.069016 377.177399,184.027069 377.701935,186.265945 
	C383.217621,209.807922 381.433929,232.804291 372.273102,255.174698 
	C371.151611,257.913239 371.736938,259.747009 373.485382,261.923340 
	C389.524750,281.887543 400.463013,304.269379 404.812836,329.627106 
	C407.763000,346.825104 407.041809,363.766724 400.333832,380.151154 
	C398.419373,384.827209 395.419067,388.807098 392.195648,392.974518 
	C393.850800,394.371918 395.709747,393.934631 397.401886,393.940308 
	C407.568237,393.974487 417.734772,393.942200 427.901245,393.932556 
	C428.734558,393.931763 429.571228,393.885437 430.400604,393.942932 
	C434.260040,394.210693 439.006348,393.133026 440.009857,398.669098 
	C440.643707,402.165955 436.993530,404.098846 430.490173,404.095581 
	C378.157928,404.069244 325.825623,403.996246 273.493408,404.018921 
	C204.828064,404.048676 136.162766,404.154175 67.497429,404.218018 
	C65.500229,404.219879 63.462208,404.351501 61.515495,404.010284 
	C58.791153,403.532776 56.852734,401.810822 57.022499,398.891174 
	C57.196674,395.895782 59.282204,394.658234 62.186375,394.660400 
	C70.519470,394.666565 78.852844,394.685730 87.185486,394.620178 
	C89.134880,394.604858 91.172897,394.952148 93.458679,393.691925 
	C91.082039,382.262024 88.714500,370.748749 86.291183,359.247192 
	C80.707733,332.747101 75.063911,306.259644 69.517685,279.751801 
	C67.829735,271.684296 71.313667,267.108459 79.503540,266.898712 
	C88.496986,266.668427 97.500732,266.840057 106.999954,266.836609 
M188.130219,247.937805 
	C185.768097,241.763443 187.004959,235.823288 190.736816,230.895035 
	C196.932785,222.712692 197.420578,213.888992 195.594635,204.384583 
	C193.064270,191.213394 180.361893,179.104797 168.004684,178.289291 
	C154.794113,177.417480 142.805420,186.298218 138.225449,200.320129 
	C132.236679,218.655212 132.094650,237.221466 135.882843,255.975510 
	C138.443390,268.651917 136.899734,266.849182 149.462585,266.869293 
	C181.452332,266.920532 213.442276,266.839355 245.432129,266.843719 
	C253.461945,266.844818 257.008911,269.617554 258.255554,276.519562 
	C260.851990,290.894775 263.493073,305.261871 266.114166,319.632629 
	C266.543518,321.986816 266.037750,324.682037 268.402405,326.299225 
	C269.972290,326.147400 270.964142,325.224335 271.978149,324.371216 
	C282.442322,315.567444 292.315613,306.182678 301.533905,296.041901 
	C307.812225,289.135284 310.728790,282.492340 304.866547,273.896667 
	C301.436340,268.867065 302.620117,264.218170 306.384857,259.333984 
	C315.539032,247.457718 320.846924,234.129089 320.829681,218.750488 
	C320.797241,189.829742 295.275208,173.587723 270.036713,179.023605 
	C243.461655,184.747375 229.543488,210.089432 237.978302,236.060150 
	C241.192337,245.956131 238.220230,252.915451 228.660828,257.181885 
	C225.802567,258.457520 222.701019,259.493622 219.613846,259.897614 
	C206.564972,261.605225 194.189377,259.702484 188.130219,247.937805 
M281.076263,136.305573 
	C290.763611,139.316940 300.442169,142.356903 310.141479,145.329208 
	C316.179718,147.179581 316.844177,146.752625 317.677979,140.288773 
	C318.591003,133.210587 319.474060,126.125191 320.174500,119.023643 
	C321.662659,103.935371 318.975311,89.888741 309.471375,77.615128 
	C300.339508,65.822075 282.761017,61.244923 269.053192,67.184166 
	C265.811798,68.588577 263.531219,71.000443 263.158905,74.635834 
	C262.867401,77.481865 261.570435,79.128929 258.861145,80.063110 
	C251.262802,82.683060 244.192505,86.206062 238.209015,91.792992 
	C235.660065,94.172989 232.271988,95.344528 228.866348,96.356911 
	C220.418549,98.868195 211.972137,101.411530 203.641800,104.280617 
	C198.408524,106.083023 195.329941,110.205734 193.919876,115.497414 
	C192.516891,120.762604 193.189056,121.633949 198.764343,121.650436 
	C208.908768,121.680443 219.022247,121.683220 229.123505,123.159363 
	C246.645386,125.719925 263.491608,130.817108 281.076263,136.305573 
M196.695969,324.222565 
	C200.248840,337.041962 196.807892,347.817749 187.107651,356.704346 
	C183.339859,360.156067 178.658173,361.856506 173.890274,363.458405 
	C170.995193,364.431152 168.323135,366.226929 168.249268,369.686554 
	C168.177338,373.055359 170.327057,375.106873 173.401733,376.302856 
	C178.625458,378.334869 183.897369,379.138824 189.486877,377.893921 
	C198.986801,375.778076 207.141327,371.536621 214.109589,364.562073 
	C221.912781,356.751770 230.586121,357.359283 237.879944,365.515289 
	C241.893448,370.003235 246.582260,373.686462 251.461609,377.197540 
	C254.814713,379.610382 258.251556,381.233124 262.023132,378.948944 
	C266.095001,376.482880 267.596405,372.619019 266.589935,367.793701 
	C265.030212,360.315887 263.713959,352.787201 262.145782,345.311279 
	C260.225433,336.156403 255.730957,333.130646 246.518417,331.680023 
	C237.344650,330.235565 227.896637,328.467529 221.593765,320.191376 
	C219.228958,317.086212 215.679718,315.268188 212.165146,313.822937 
	C205.479080,311.073578 197.185654,316.311859 196.695969,324.222565 
M246.665894,165.834595 
	C257.137878,166.141663 267.650085,166.997665 277.546417,162.148956 
	C279.271881,161.303574 281.427032,161.119751 283.400360,161.039413 
	C287.807892,160.860016 291.879578,159.437302 295.988403,158.088318 
	C298.172180,157.371384 299.884338,156.390701 299.821259,153.604279 
	C299.759399,150.872635 298.614410,149.489441 295.966919,148.664566 
	C271.374084,141.002075 247.103378,132.008942 221.172745,129.754150 
	C209.393295,128.729843 197.570221,128.848679 185.823593,130.636917 
	C183.110153,131.050018 181.529861,132.309280 180.767227,135.203629 
	C179.005875,141.888260 183.007599,148.535248 190.452118,150.749039 
	C197.789169,152.930878 205.088074,155.241669 212.431992,157.399628 
	C223.416092,160.627243 234.088730,165.108261 246.665894,165.834595 
M350.825256,159.881714 
	C358.856140,160.142471 361.622925,157.967026 362.011749,150.065979 
	C362.618439,137.737000 362.321014,125.425827 358.544464,113.501358 
	C356.923096,108.381874 354.131317,103.628876 350.260010,100.158760 
	C344.418945,94.923042 336.687225,92.507072 329.964355,88.526360 
	C328.469086,87.640991 326.751282,87.234940 325.254517,88.392593 
	C323.572021,89.693886 324.494507,91.401199 324.913177,92.982544 
	C326.669434,99.616341 327.379364,106.345604 327.390625,113.226082 
	C327.408752,124.271858 325.463989,135.089798 324.069244,145.971222 
	C323.749817,148.463135 323.951019,150.002472 326.632965,150.962967 
	C334.465973,153.768158 342.216095,156.804611 350.825256,159.881714 
M292.020721,380.632965 
	C315.452667,377.196991 333.108093,364.554840 346.977509,345.987885 
	C348.749756,343.615356 350.048767,340.867767 351.386932,338.203522 
	C351.897278,337.187439 351.949432,335.875031 350.717987,335.090515 
	C349.682556,334.430908 348.765991,335.046539 347.980652,335.627563 
	C344.241364,338.394257 340.496002,341.155945 336.831909,344.020660 
	C319.974060,357.200348 301.733765,367.394226 280.152771,370.418274 
	C277.043915,370.853882 276.033112,372.433594 276.545380,375.602020 
	C277.185059,379.558807 278.900818,381.485992 283.137512,380.927002 
	C285.759338,380.581116 288.448608,380.746490 292.020721,380.632965 
M154.680588,345.626160 
	C155.277481,336.844879 161.446533,333.774811 168.749023,331.681244 
	C176.544327,329.446442 179.795944,321.885010 176.165573,314.853821 
	C173.547440,309.783081 166.644440,307.752258 159.345261,309.905426 
	C149.841110,312.709076 143.279587,320.463898 142.567169,331.240509 
	C141.932968,340.833954 145.898743,348.723846 153.948441,354.280640 
	C154.617401,354.742432 155.534531,355.570129 156.663757,354.666321 
	C155.636169,352.010162 154.497070,349.393951 154.680588,345.626160 
M166.911072,349.496399 
	C169.187729,350.085754 170.835999,349.358002 171.460327,347.042603 
	C171.858704,345.565094 170.928146,344.520050 169.718002,343.841614 
	C168.460602,343.136719 167.116440,343.155151 166.127380,344.287628 
	C164.731796,345.885590 164.872162,347.555420 166.911072,349.496399 
z"/>
<path fill="#000000" opacity="1.000000" stroke="none" 
	d="
M276.407471,219.947937 
	C278.092560,226.072128 276.626801,231.275589 273.377319,235.917343 
	C268.880646,242.340637 260.873779,241.554260 258.030762,234.330154 
	C255.238892,227.236145 256.156250,220.235504 260.514496,213.955780 
	C262.362640,211.292831 265.186188,209.409851 268.638580,210.155167 
	C273.521881,211.209457 275.420319,215.055161 276.407471,219.947937 
z"/>
<path fill="#000000" opacity="1.000000" stroke="none" 
	d="
M162.199127,232.320282 
	C160.839035,226.664764 160.760483,221.439758 162.963623,216.376495 
	C164.610291,212.592178 167.376816,209.806503 171.647949,210.119873 
	C175.727753,210.419220 177.839447,213.650848 179.107071,217.280624 
	C180.827560,222.207153 180.363724,227.062988 178.446823,231.849869 
	C176.895859,235.722900 174.862579,239.118851 170.111984,239.267197 
	C165.658081,239.406296 163.851517,236.172058 162.199127,232.320282 
z"/>
<path fill="#000000" opacity="1.000000" stroke="none" 
	d="
M162.782440,320.113586 
	C163.644119,316.938416 165.417389,315.371979 168.356812,316.002197 
	C170.485138,316.458557 171.744873,318.114380 171.988480,320.276703 
	C172.217194,322.306885 171.208817,323.985229 169.385696,324.681702 
	C165.517288,326.159485 163.386124,324.431854 162.782440,320.113586 
z"/>
</svg>